<svg width="574" height="232" viewBox="0 0 574 232" fill="none" xmlns="http://www.w3.org/2000/svg">
<path d="M362.315 40.9521L347.315 32.2919V49.6124L362.315 40.9521ZM211.29 42.4521H213.277V39.4521H211.29V42.4521ZM217.251 42.4521H221.225V39.4521H217.251V42.4521ZM225.2 42.4521L229.174 42.4521V39.4521L225.2 39.4521V42.4521ZM233.148 42.4521H237.123V39.4521H233.148V42.4521ZM241.097 42.4521H245.071V39.4521H241.097V42.4521ZM249.046 42.4521H253.02V39.4521H249.046V42.4521ZM256.995 42.4521H260.969V39.4521H256.995V42.4521ZM264.943 42.4521H268.918V39.4521H264.943V42.4521ZM272.892 42.4521H276.866V39.4521H272.892V42.4521ZM280.841 42.4521H284.815V39.4521H280.841V42.4521ZM288.789 42.4521H292.764V39.4521H288.789V42.4521ZM296.738 42.4521H300.712V39.4521H296.738V42.4521ZM304.687 42.4521H308.661V39.4521H304.687V42.4521ZM312.635 42.4521L316.61 42.4521V39.4521L312.635 39.4521V42.4521ZM320.584 42.4521H324.558V39.4521H320.584V42.4521ZM328.533 42.4521H332.507V39.4521H328.533V42.4521ZM336.481 42.4521H340.456V39.4521H336.481V42.4521ZM344.43 42.4521L348.404 42.4521V39.4521L344.43 39.4521V42.4521ZM352.379 42.4521H356.353V39.4521H352.379V42.4521Z" fill="url(#paint0_linear_204_3180)"/>
<path d="M394.082 191.952L409.441 200.441L409.305 183.463L394.082 191.952ZM468.271 185.143L469.8 185.155L468.271 185.143ZM461.19 191.952L461.201 193.423L461.19 191.952ZM466.741 82.941L466.741 84.9062L469.8 84.9287L469.8 82.9635L466.741 82.941ZM466.741 88.8366L466.741 92.7671L469.8 92.7896L469.8 88.8591L466.741 88.8366ZM466.741 96.6975L466.741 100.628L469.8 100.65L469.8 96.72L466.741 96.6975ZM466.741 104.558L466.741 108.489L469.8 108.511L469.8 104.581L466.741 104.558ZM466.741 112.419L466.741 116.35L469.8 116.372L469.8 112.442L466.741 112.419ZM466.741 120.28L466.742 124.21L469.8 124.233L469.8 120.303L466.741 120.28ZM466.742 128.141L466.742 132.071L469.8 132.094L469.8 128.163L466.742 128.141ZM466.742 136.002L466.742 139.932L469.8 139.955L469.8 136.024L466.742 136.002ZM466.742 143.863L466.742 147.793L469.8 147.816L469.8 143.885L466.742 143.863ZM466.742 151.723L466.742 155.654L469.8 155.676L469.8 151.746L466.742 151.723ZM466.742 159.584L466.742 163.515L469.8 163.537L469.8 159.607L466.742 159.584ZM466.742 167.445L466.742 171.376L469.8 171.398L469.8 167.468L466.742 167.445ZM466.742 175.306L466.742 179.236L469.8 179.259L469.8 175.328L466.742 175.306ZM466.742 183.167L466.742 185.132L469.8 185.155L469.8 183.189L466.742 183.167ZM466.742 185.132C466.742 185.862 466.592 186.553 466.321 187.183L469.148 188.325C469.569 187.347 469.8 186.276 469.8 185.155L466.742 185.132ZM463.31 190.077C462.656 190.338 461.937 190.482 461.178 190.482L461.201 193.423C462.367 193.423 463.482 193.2 464.498 192.796L463.31 190.077ZM461.178 190.482L459.081 190.482L459.104 193.423L461.201 193.423L461.178 190.482ZM454.887 190.482L450.692 190.482L450.716 193.423L454.91 193.423L454.887 190.482ZM446.498 190.482L442.304 190.482L442.327 193.423L446.522 193.423L446.498 190.482ZM438.11 190.482L433.916 190.482L433.939 193.423L438.133 193.423L438.11 190.482ZM429.721 190.482L425.527 190.482L425.55 193.423L429.745 193.423L429.721 190.482ZM421.333 190.482L417.139 190.482L417.162 193.423L421.356 193.423L421.333 190.482ZM412.944 190.482L408.75 190.482L408.774 193.423L412.968 193.423L412.944 190.482ZM404.556 190.482L400.362 190.482L400.385 193.423L404.579 193.423L404.556 190.482Z" fill="url(#paint1_linear_204_3180)"/>
<path d="M102.437 85.952L111.266 100.59L93.6089 100.72L102.437 85.952ZM102.437 187.143L103.967 187.132L102.437 187.143ZM109.519 193.952L109.507 195.422L109.519 193.952ZM103.966 91.7787L103.966 95.6707L100.908 95.6932L100.908 91.8012L103.966 91.7787ZM103.966 99.5626L103.966 103.455L100.908 103.477L100.908 99.5852L103.966 99.5626ZM103.966 107.347L103.966 111.239L100.908 111.261L100.908 107.369L103.966 107.347ZM103.966 115.131L103.966 119.022L100.908 119.045L100.908 115.153L103.966 115.131ZM103.966 122.914L103.966 126.806L100.908 126.829L100.908 122.937L103.966 122.914ZM103.966 130.698L103.966 134.59L100.908 134.613L100.908 130.721L103.966 130.698ZM103.966 138.482L103.966 142.374L100.908 142.397L100.908 138.505L103.966 138.482ZM103.966 146.266L103.966 150.158L100.908 150.181L100.908 146.289L103.966 146.266ZM103.967 154.05L103.967 157.942L100.908 157.965L100.908 154.073L103.967 154.05ZM103.967 161.834L103.967 165.726L100.908 165.749L100.908 161.857L103.967 161.834ZM103.967 169.618L103.967 173.51L100.908 173.532L100.908 169.641L103.967 169.618ZM103.967 177.402L103.967 181.294L100.908 181.316L100.908 177.424L103.967 177.402ZM103.967 185.186L103.967 187.132L100.908 187.154L100.908 185.208L103.967 185.186ZM103.967 187.132C103.967 187.862 104.117 188.553 104.387 189.182L101.56 190.324C101.14 189.347 100.908 188.275 100.908 187.154L103.967 187.132ZM107.398 192.077C108.052 192.337 108.771 192.482 109.53 192.482L109.507 195.422C108.341 195.422 107.227 195.2 106.21 194.796L107.398 192.077ZM109.53 192.482L111.562 192.482L111.538 195.422L109.507 195.422L109.53 192.482ZM115.624 192.482L119.687 192.482L119.664 195.422L115.601 195.422L115.624 192.482ZM123.75 192.482L127.813 192.482L127.789 195.422L123.726 195.422L123.75 192.482ZM131.875 192.482L135.938 192.482L135.914 195.422L131.852 195.422L131.875 192.482ZM140.001 192.482L144.063 192.482L144.04 195.422L139.977 195.422L140.001 192.482ZM148.126 192.482L152.189 192.482L152.165 195.422L148.103 195.422L148.126 192.482ZM156.251 192.482L160.314 192.482L160.291 195.422L156.228 195.422L156.251 192.482ZM164.377 192.482L168.439 192.482L168.416 195.422L164.353 195.422L164.377 192.482ZM172.502 192.482L176.565 192.482L176.541 195.422L172.479 195.422L172.502 192.482ZM180.627 192.482L182.659 192.482L182.635 195.422L180.604 195.422L180.627 192.482Z" fill="url(#paint2_linear_204_3180)"/>
<rect x="0.895996" y="1.95215" width="210.394" height="82" rx="16" fill="#B7E497"/>
<path d="M94.302 37.7201V48.9521H91.566V42.2161L89.054 48.9521H86.846L84.318 42.2001V48.9521H81.582V37.7201H84.814L87.966 45.4961L91.086 37.7201H94.302ZM101.581 49.0641C100.525 49.0641 99.5548 48.8188 98.6695 48.3281C97.7948 47.8375 97.0961 47.1548 96.5735 46.2801C96.0615 45.3948 95.8055 44.4028 95.8055 43.3041C95.8055 42.2055 96.0615 41.2188 96.5735 40.3441C97.0961 39.4695 97.7948 38.7868 98.6695 38.2961C99.5548 37.8055 100.525 37.5601 101.581 37.5601C102.637 37.5601 103.603 37.8055 104.477 38.2961C105.363 38.7868 106.056 39.4695 106.557 40.3441C107.069 41.2188 107.325 42.2055 107.325 43.3041C107.325 44.4028 107.069 45.3948 106.557 46.2801C106.045 47.1548 105.352 47.8375 104.477 48.3281C103.603 48.8188 102.637 49.0641 101.581 49.0641ZM101.581 46.5681C102.477 46.5681 103.192 46.2695 103.725 45.6721C104.269 45.0748 104.541 44.2855 104.541 43.3041C104.541 42.3121 104.269 41.5228 103.725 40.9361C103.192 40.3388 102.477 40.0401 101.581 40.0401C100.675 40.0401 99.9495 40.3335 99.4055 40.9201C98.8721 41.5068 98.6055 42.3015 98.6055 43.3041C98.6055 44.2961 98.8721 45.0908 99.4055 45.6881C99.9495 46.2748 100.675 46.5681 101.581 46.5681ZM113.056 37.7201C114.24 37.7201 115.274 37.9548 116.16 38.4241C117.045 38.8935 117.728 39.5548 118.208 40.4081C118.698 41.2508 118.944 42.2268 118.944 43.3361C118.944 44.4348 118.698 45.4108 118.208 46.2641C117.728 47.1175 117.04 47.7788 116.144 48.2481C115.258 48.7175 114.229 48.9521 113.056 48.9521H108.848V37.7201H113.056ZM112.88 46.5841C113.914 46.5841 114.72 46.3015 115.296 45.7361C115.872 45.1708 116.16 44.3708 116.16 43.3361C116.16 42.3015 115.872 41.4961 115.296 40.9201C114.72 40.3441 113.914 40.0561 112.88 40.0561H111.584V46.5841H112.88ZM123.209 39.9121V42.1841H126.873V44.2961H123.209V46.7601H127.353V48.9521H120.473V37.7201H127.353V39.9121H123.209ZM131.865 46.8401H135.449V48.9521H129.129V37.7201H131.865V46.8401Z" fill="#262D1F"/>
<rect x="363.356" y="0.952148" width="210.394" height="82" rx="16" fill="#98BFFF"/>
<path d="M465.393 37.7201L461.409 48.9521H457.985L454.001 37.7201H456.913L459.697 46.2001L462.497 37.7201H465.393ZM469.273 37.7201V48.9521H466.537V37.7201H469.273ZM473.991 39.9121V42.1841H477.655V44.2961H473.991V46.7601H478.135V48.9521H471.255V37.7201H478.135V39.9121H473.991ZM495.368 37.7201L492.44 48.9521H489.128L487.336 41.5601L485.48 48.9521H482.168L479.32 37.7201H482.248L483.864 45.8961L485.864 37.7201H488.872L490.792 45.8961L492.424 37.7201H495.368Z" fill="#1F1F2D"/>
<path d="M182.126 163.952C182.126 155.116 189.289 147.952 198.126 147.952H376.52C385.356 147.952 392.52 155.116 392.52 163.952V213.952C392.52 222.789 385.356 229.952 376.52 229.952H198.126C189.289 229.952 182.126 222.789 182.126 213.952V163.952Z" fill="#F1BC6A"/>
<path d="M263.77 183.72V190.44C263.77 191.112 263.936 191.629 264.266 191.992C264.597 192.355 265.082 192.536 265.722 192.536C266.362 192.536 266.853 192.355 267.194 191.992C267.536 191.629 267.706 191.112 267.706 190.44V183.72H270.442V190.424C270.442 191.427 270.229 192.275 269.802 192.968C269.376 193.661 268.8 194.184 268.074 194.536C267.36 194.888 266.56 195.064 265.674 195.064C264.789 195.064 263.994 194.893 263.29 194.552C262.597 194.2 262.048 193.677 261.642 192.984C261.237 192.28 261.034 191.427 261.034 190.424V183.72H263.77ZM280.924 187.336C280.924 187.987 280.774 188.584 280.476 189.128C280.177 189.661 279.718 190.093 279.1 190.424C278.481 190.755 277.713 190.92 276.796 190.92H275.1V194.952H272.364V183.72H276.796C277.692 183.72 278.449 183.875 279.068 184.184C279.686 184.493 280.15 184.92 280.46 185.464C280.769 186.008 280.924 186.632 280.924 187.336ZM276.588 188.744C277.11 188.744 277.5 188.621 277.756 188.376C278.012 188.131 278.14 187.784 278.14 187.336C278.14 186.888 278.012 186.541 277.756 186.296C277.5 186.051 277.11 185.928 276.588 185.928H275.1V188.744H276.588ZM286.556 183.72C287.74 183.72 288.775 183.955 289.66 184.424C290.545 184.893 291.228 185.555 291.708 186.408C292.199 187.251 292.444 188.227 292.444 189.336C292.444 190.435 292.199 191.411 291.708 192.264C291.228 193.117 290.54 193.779 289.644 194.248C288.759 194.717 287.729 194.952 286.556 194.952H282.348V183.72H286.556ZM286.38 192.584C287.415 192.584 288.22 192.301 288.796 191.736C289.372 191.171 289.66 190.371 289.66 189.336C289.66 188.301 289.372 187.496 288.796 186.92C288.22 186.344 287.415 186.056 286.38 186.056H285.084V192.584H286.38ZM300.965 192.968H296.773L296.101 194.952H293.237L297.301 183.72H300.469L304.533 194.952H301.637L300.965 192.968ZM300.261 190.856L298.869 186.744L297.493 190.856H300.261ZM313.85 183.72V185.912H310.874V194.952H308.138V185.912H305.162V183.72H313.85ZM317.959 185.912V188.184H321.623V190.296H317.959V192.76H322.103V194.952H315.223V183.72H322.103V185.912H317.959Z" fill="#2D241F"/>
<defs>
<linearGradient id="paint0_linear_204_3180" x1="209.727" y1="40.9521" x2="326.381" y2="40.9521" gradientUnits="userSpaceOnUse">
<stop stop-color="#9DD476"/>
<stop offset="1" stop-color="#81A4CD"/>
</linearGradient>
<linearGradient id="paint1_linear_204_3180" x1="469.476" y1="81.9981" x2="382.42" y2="156.685" gradientUnits="userSpaceOnUse">
<stop stop-color="#81A4CD"/>
<stop offset="1" stop-color="#F8BF68"/>
</linearGradient>
<linearGradient id="paint2_linear_204_3180" x1="101.232" y1="83.9978" x2="188.288" y2="158.685" gradientUnits="userSpaceOnUse">
<stop stop-color="#9DD476"/>
<stop offset="1" stop-color="#F8BF68"/>
</linearGradient>
</defs>
</svg>
