<svg width="464" height="417" viewBox="0 0 464 417" fill="none" xmlns="http://www.w3.org/2000/svg">
<rect x="0.25" y="46.9521" width="394.25" height="269" rx="12" fill="#CED8EA"/>
<rect x="13.25" y="60" width="368" height="242" rx="10" fill="url(#paint0_linear_212_3837)" fill-opacity="0.9"/>
<rect x="91.9053" y="133.375" width="99.2648" height="99.2648" rx="49.6324" fill="url(#paint1_linear_212_3837)"/>
<path d="M238.343 254.67C236.163 245.918 241.02 237.176 249.189 235.142L249.518 235.06C257.673 233.029 266.05 238.444 268.245 247.176C275.432 275.741 276.087 278.557 286.679 321.256C292.626 345.232 279.316 369.165 256.94 374.738L208.901 386.703C194.201 390.364 178.524 385.211 167.935 373.242L104.609 301.62L108.159 296.794C115.304 285.97 129.502 283.547 140.008 291.352L155.629 302.959L130.695 202.551C128.522 193.802 133.38 185.064 141.544 183.031L141.548 183.03C149.719 180.995 158.11 186.443 160.29 195.194L175.422 255.951C173.483 247.337 178.318 238.838 186.36 236.835L186.706 236.749C194.877 234.714 203.267 240.158 205.447 248.91L206.717 254.012C204.537 245.258 209.392 236.517 217.568 234.48L217.603 234.472C225.771 232.437 234.161 237.88 236.341 246.633L238.343 254.67Z" fill="#F7CAA5"/>
<path d="M346.753 5.91084L343.57 23.8126H305.645L302.197 43.8361H330.575L327.392 61.0748H299.015L292.384 99H269.709L286.152 5.91084H346.753ZM439.029 40.9187L432.267 58.2901H448.312L444.599 78.7113H424.31L416.354 99H395.137L403.093 78.7113H381.081L373.124 99H351.908L359.864 78.7113H340.238L343.951 58.2901H367.82L374.583 40.9187H355.488L359.068 20.4975H382.539L390.231 0.871828H411.448L403.756 20.4975H425.769L433.46 0.871828H454.677L446.986 20.4975H463.429L459.849 40.9187H439.029ZM417.813 40.9187H395.8L389.037 58.2901H411.05L417.813 40.9187Z" fill="#9F97D8"/>
<defs>
<linearGradient id="paint0_linear_212_3837" x1="197.25" y1="60" x2="197.25" y2="302" gradientUnits="userSpaceOnUse">
<stop stop-color="white"/>
<stop offset="1" stop-color="#F2F2F2"/>
</linearGradient>
<linearGradient id="paint1_linear_212_3837" x1="141.538" y1="133.375" x2="141.538" y2="232.64" gradientUnits="userSpaceOnUse">
<stop stop-color="#85B2E6"/>
<stop offset="0.477074" stop-color="#9EC3EE"/>
<stop offset="1" stop-color="#ACC7F8"/>
</linearGradient>
</defs>
</svg>
